<svg xmlns="http://www.w3.org/2000/svg" width="86.729" height="89.218" viewBox="0 0 86.729 89.218"><g transform="translate(0.72 0.748)"><g transform="translate(46.624 33)"><path d="M-5.605,17.12Z" transform="translate(2.253)" fill="#0096dc"/><path d="M-19.125-4.5l2.867,28.351L-3.394,27l12.9-3.154L12.375-4.5ZM4.72,19.048l-8.089,1.978-8.077-1.986L-12,13.57h3.958l.282,2.782,4.4,1.066.011.019h0l4.386-1.044.46-4.51H-7.723l-.328-3.516h9.9l.361-3.586h-15.1l-.328-3.445H6.516Z" fill="#0096dc"/></g><path d="M64.5,49.663V23a6.667,6.667,0,0,0-3.333-5.767L37.833,3.9a6.667,6.667,0,0,0-6.667,0L7.833,17.23A6.667,6.667,0,0,0,4.5,23V49.663A6.667,6.667,0,0,0,7.833,55.43L31.167,68.763a6.667,6.667,0,0,0,6.667,0L61.167,55.43A6.667,6.667,0,0,0,64.5,49.663Z" transform="translate(30.931 -4.851) rotate(30)" fill="none" stroke="#0096dc" stroke-linecap="round" stroke-linejoin="round" stroke-width="1"/></g></svg>