<svg xmlns="http://www.w3.org/2000/svg" width="86.729" height="89.218" viewBox="0 0 86.729 89.218"><g transform="translate(0.72 0.748)"><path d="M26.119,25.2l-5.644-9.45L26.119,6.3l2.756,9.45ZM13.65,24.281,6.563,17.325H17.85l5.644,9.45L13.65,24.281Zm0-17.194,9.844-2.494-5.644,9.45H6.431c0,.131,7.219-6.956,7.219-6.956ZM28.087,0,15.225,3.281,13.256,6.563H9.45L0,15.75l9.45,9.188h3.806l1.837,3.281L27.956,31.5l3.413-12.469L29.531,15.75,31.5,12.469,28.087,0Z" transform="translate(26.5 27.5)" fill="#cacaca"/><path d="M64.5,49.663V23a6.667,6.667,0,0,0-3.333-5.767L37.833,3.9a6.667,6.667,0,0,0-6.667,0L7.833,17.23A6.667,6.667,0,0,0,4.5,23V49.663A6.667,6.667,0,0,0,7.833,55.43L31.167,68.763a6.667,6.667,0,0,0,6.667,0L61.167,55.43A6.667,6.667,0,0,0,64.5,49.663Z" transform="translate(30.931 -4.851) rotate(30)" fill="none" stroke="#fff" stroke-linecap="round" stroke-linejoin="round" stroke-width="1"/></g></svg>