<svg xmlns="http://www.w3.org/2000/svg" width="86.729" height="89.218" viewBox="0 0 86.729 89.218"><g transform="translate(0.72 0.748)"><path d="M28.848,6.927c-1.617,0-4.757,2.284-7.422,2.284S15.432,6.927,14,6.927c-9.8,0-15.414,26.355-8.087,26.355,6.185,0,7.018-7.707,15.485-7.707,6.851,0,10.871,7.614,15.438,7.614,7.326,0,1.809-26.262-7.993-26.262ZM13.433,21.771a5.138,5.138,0,1,1,5.138-5.138A5.139,5.139,0,0,1,13.433,21.771Zm13.631-2.855a1.142,1.142,0,1,1,1.142-1.142A1.141,1.141,0,0,1,27.064,18.916Zm3.5,3.425A1.142,1.142,0,1,1,31.7,21.2,1.141,1.141,0,0,1,30.561,22.342Zm0-6.851A1.142,1.142,0,1,1,31.7,14.349,1.141,1.141,0,0,1,30.561,15.491Zm3.425,3.425a1.142,1.142,0,1,1,1.142-1.142A1.141,1.141,0,0,1,33.986,18.916ZM13.433,13.778a2.855,2.855,0,1,0,2.855,2.855A2.855,2.855,0,0,0,13.433,13.778Z" transform="translate(20.929 23.573)" fill="#cacaca"/><path d="M64.5,49.663V23a6.667,6.667,0,0,0-3.333-5.767L37.833,3.9a6.667,6.667,0,0,0-6.667,0L7.833,17.23A6.667,6.667,0,0,0,4.5,23V49.663A6.667,6.667,0,0,0,7.833,55.43L31.167,68.763a6.667,6.667,0,0,0,6.667,0L61.167,55.43A6.667,6.667,0,0,0,64.5,49.663Z" transform="translate(30.931 -4.851) rotate(30)" fill="none" stroke="#0096dc" stroke-linecap="round" stroke-linejoin="round" stroke-width="1"/></g></svg>