<svg xmlns="http://www.w3.org/2000/svg" width="86.729" height="89.218" viewBox="0 0 86.729 89.218"><g transform="translate(0.72 0.748)"><path d="M4.394,1.928,7.26,30.279l12.865,3.149,12.9-3.154L35.894,1.928ZM29.656,11.2H14.566l.359,3.561H29.3L28.214,25.436l-8.088,1.977-8.079-1.977L11.5,19.975h3.959l.281,2.776,4.391,1.043.01,0,4.393-1.046.456-4.508H11.319L10.255,7.724H30.008L29.656,11.2Z" transform="translate(22.106 26.572)" fill="#e44d26"/><path d="M64.5,49.663V23a6.667,6.667,0,0,0-3.333-5.767L37.833,3.9a6.667,6.667,0,0,0-6.667,0L7.833,17.23A6.667,6.667,0,0,0,4.5,23V49.663A6.667,6.667,0,0,0,7.833,55.43L31.167,68.763a6.667,6.667,0,0,0,6.667,0L61.167,55.43A6.667,6.667,0,0,0,64.5,49.663Z" transform="translate(30.931 -4.851) rotate(30)" fill="none" stroke="#e44d26" stroke-linecap="round" stroke-linejoin="round" stroke-width="1"/></g></svg>