<svg xmlns="http://www.w3.org/2000/svg" width="86.729" height="89.218" viewBox="0 0 86.729 89.218"><g transform="translate(0.72 0.748)"><path d="M0,0H31.5V31.5H0ZM28.92,23.987c-.23-1.437-1.166-2.645-3.941-3.771-.966-.453-2.04-.768-2.359-1.5a1.55,1.55,0,0,1-.06-.925,1.5,1.5,0,0,1,1.988-.866,2.135,2.135,0,0,1,1.281,1.181c1.357-.887,1.357-.887,2.3-1.477a5.417,5.417,0,0,0-.769-1.024,4.408,4.408,0,0,0-3.72-1.357l-.925.117a4.231,4.231,0,0,0-2.244,1.319,4.118,4.118,0,0,0,.747,5.868c1.792,1.339,4.411,1.633,4.746,2.894.315,1.536-1.142,2.028-2.58,1.851a3.456,3.456,0,0,1-2.3-1.753l-2.4,1.379a5.308,5.308,0,0,0,1.063,1.456c2.284,2.3,7.993,2.187,9.018-1.318a4.442,4.442,0,0,0,.1-2.166l.06.088Zm-11.79-9.509h-2.95c0,2.544-.012,5.071-.012,7.619a12.427,12.427,0,0,1-.181,3.558c-.433.9-1.549.789-2.055.63a2.532,2.532,0,0,1-1.089-1.122,1.126,1.126,0,0,0-.167-.257l-2.4,1.477a4.642,4.642,0,0,0,1.738,1.991,5.776,5.776,0,0,0,4.209.532A3.687,3.687,0,0,0,16.6,27.053c.669-1.221.528-2.717.521-4.392.016-2.7,0-5.393,0-8.11l.005-.073Z" transform="translate(27.03 28.035)" fill="#f7df1e"/><path d="M60,46.66V19.993a6.667,6.667,0,0,0-3.333-5.767L33.333.893a6.667,6.667,0,0,0-6.667,0L3.333,14.226A6.667,6.667,0,0,0,0,19.993V46.66a6.667,6.667,0,0,0,3.333,5.767L26.667,65.76a6.667,6.667,0,0,0,6.667,0L56.667,52.427A6.667,6.667,0,0,0,60,46.66Z" transform="translate(33.327) rotate(30)" fill="none" stroke="#f7df1e" stroke-linecap="round" stroke-linejoin="round" stroke-width="1"/></g></svg>