<svg xmlns="http://www.w3.org/2000/svg" width="48.932" height="48.932" viewBox="0 0 48.932 48.932"><path d="M45.437,2.25H3.484A3.51,3.51,0,0,0,0,5.778V47.654a3.51,3.51,0,0,0,3.484,3.528H45.437a3.52,3.52,0,0,0,3.5-3.528V5.778A3.52,3.52,0,0,0,45.437,2.25ZM14.789,44.192H7.536V20.84H14.8V44.192ZM11.163,17.651a4.205,4.205,0,1,1,4.205-4.205,4.207,4.207,0,0,1-4.205,4.205ZM41.975,44.192H34.722V32.833c0-2.709-.055-6.193-3.768-6.193-3.779,0-4.358,2.949-4.358,6V44.192H19.343V20.84H26.3v3.189h.1a7.639,7.639,0,0,1,6.87-3.768c7.34,0,8.705,4.839,8.705,11.13Z" transform="translate(0 -2.25)" fill="#cacaca"/></svg>