<svg xmlns="http://www.w3.org/2000/svg" width="86.729" height="89.218" viewBox="0 0 86.729 89.218"><g transform="translate(0.72 0.748)"><path d="M29.4,2.968c-.356.068-15.3,2.968-15.614,3.029a.671.671,0,0,0-.613.606V24.784a2.089,2.089,0,0,1-.182.886,2.018,2.018,0,0,1-1.219.962c-.25.083-.591.159-.992.25-1.825.409-4.876,1.106-4.876,3.922a3.466,3.466,0,0,0,3.158,3.6,3.692,3.692,0,0,0,.538.053h0a9.346,9.346,0,0,0,3.877-1A4.08,4.08,0,0,0,15.3,29.834V13.743a.6.6,0,0,1,.485-.591L27.3,10.828a.605.605,0,0,1,.727.591v9.912a2.171,2.171,0,0,1-.189,1.015,2.012,2.012,0,0,1-1.227.962c-.25.083-.666.159-1.068.25-1.825.409-4.876,1.1-4.876,3.915a3.473,3.473,0,0,0,3.165,3.657,6.258,6.258,0,0,0,1.469-.068,8.681,8.681,0,0,0,2.764-.984,3.991,3.991,0,0,0,2.082-3.65V3.551A.6.6,0,0,0,29.4,2.968Z" transform="translate(24.594 24.547)" fill="#cacaca"/><path d="M60,46.66V19.993a6.667,6.667,0,0,0-3.333-5.767L33.333.893a6.667,6.667,0,0,0-6.667,0L3.333,14.226A6.667,6.667,0,0,0,0,19.993V46.66a6.667,6.667,0,0,0,3.333,5.767L26.667,65.76a6.667,6.667,0,0,0,6.667,0L56.667,52.427A6.667,6.667,0,0,0,60,46.66Z" transform="translate(33.327) rotate(30)" fill="none" stroke="#41b883" stroke-linecap="round" stroke-linejoin="round" stroke-width="1"/></g></svg>