<svg width="87" height="89" viewBox="0 0 87 89" fill="none" xmlns="http://www.w3.org/2000/svg">
<path d="M62.6782 71.1564L76.0097 48.0656C76.5932 47.0526 76.9001 45.9039 76.8996 44.7348C76.8991 43.5657 76.5912 42.4173 76.0067 41.4047L62.4654 18.191C61.8802 17.1775 61.0386 16.3359 60.0251 15.7507C59.0116 15.1656 57.8619 14.8575 56.6916 14.8575L29.8196 14.7351C28.65 14.7352 27.501 15.043 26.4879 15.6276C25.4749 16.2122 24.6335 17.053 24.0481 18.0656L10.7166 41.1564C10.1331 42.1695 9.82615 43.3182 9.82667 44.4873C9.82719 45.6564 10.1351 46.8048 10.7196 47.8173L24.2609 71.031C24.8461 72.0445 25.6877 72.8862 26.7012 73.4713C27.7147 74.0565 28.8644 74.3645 30.0347 74.3645L56.9082 74.4843C58.0773 74.4842 59.2258 74.1767 60.2386 73.5926C61.2513 73.0085 62.0926 72.1683 62.6782 71.1564Z" stroke="white" stroke-linecap="round" stroke-linejoin="round"/>
<path d="M42.75 60.5C51.4485 60.5 58.5 53.4485 58.5 44.75C58.5 36.0515 51.4485 29 42.75 29C34.0515 29 27 36.0515 27 44.75C27 53.4485 34.0515 60.5 42.75 60.5Z" fill="white"/>
<path d="M38.4218 42.6215H41.9313V42.9011H38.7436V45.0051H41.7412V45.2847H38.7436V47.5946H41.9678V47.8741H38.4218V42.6215ZM42.2457 42.6215H42.6187L44.271 44.9317L45.9599 42.6215L48.2572 39.6875L44.4831 45.1744L46.4279 47.8741H46.0403L44.271 45.4171L42.4943 47.8741H42.1141L44.0736 45.1744L42.2457 42.6215ZM46.5668 42.9011V42.6215H50.5659V42.9011H48.7238V47.8741H48.4017V42.9011H46.5668ZM34.0312 42.6215H34.4334L39.9786 50.9375L37.6869 47.8741L34.3676 43.0189L34.353 47.8741H34.0312V42.6215ZM50.5339 47.5102C50.4678 47.5102 50.4186 47.4593 50.4186 47.3935C50.4186 47.3274 50.4678 47.2762 50.5336 47.2762C50.6003 47.2762 50.6486 47.3274 50.6486 47.3935C50.6486 47.4593 50.6005 47.5102 50.5339 47.5102ZM50.8497 47.2025H51.0218C51.0244 47.2959 51.0924 47.3586 51.1926 47.3586C51.3045 47.3586 51.3678 47.2914 51.3678 47.1648V46.3641H51.543V47.1657C51.543 47.3935 51.4117 47.5245 51.194 47.5245C50.9901 47.5245 50.85 47.3971 50.85 47.2025H50.8497ZM51.7722 47.1924H51.946C51.9609 47.2998 52.0656 47.3682 52.2169 47.3682C52.3575 47.3682 52.4607 47.295 52.4607 47.1946C52.4607 47.1083 52.3952 47.0565 52.2456 47.0211L52.1002 46.9859C51.896 46.9381 51.8029 46.8388 51.8029 46.6726C51.8029 46.4707 51.9671 46.3362 52.2135 46.3362C52.4427 46.3362 52.6103 46.4707 52.6205 46.6614H52.4498C52.4334 46.557 52.3429 46.4918 52.2112 46.4918C52.0726 46.4918 51.9803 46.5587 51.9803 46.6608C51.9803 46.7415 52.04 46.7879 52.1871 46.8225L52.3114 46.8532C52.5428 46.9072 52.6385 47.0014 52.6385 47.1718C52.6385 47.3884 52.4708 47.5245 52.2034 47.5245C51.9531 47.5245 51.7849 47.3949 51.7722 47.1924Z" fill="black"/>
</svg>
