<svg xmlns="http://www.w3.org/2000/svg" width="86.729" height="89.218" viewBox="0 0 86.729 89.218"><g transform="translate(0.72 0.748)"><path d="M10.546,17.78H12.88v14h3.5V19.53h3.5V31.78h3.5V19.53h3.5V31.78h3.5v-14h2.333a1.263,1.263,0,0,0,1.167-1.224,1.177,1.177,0,0,0-.486-.937l0-.045-.018-.032.117-.029L22.5,9.852V8.2c1.75.927,3.457-.669,6.125.29V4.83c-2.67-.959-4.375.636-6.125-.291V4.3c0-.29-.552-.525-.875-.525s-.875.235-.875.525V9.852L9.766,15.5l.237.018.252.01v0c-.875.191-.679.674-.679,1.025,0,.581.326,1.225.97,1.225Zm1.459,14.875L9.38,35.28h24.5l-2.625-2.625Zm19.25-14V31.78h.774l.342.484L34.7,34.451l.825.829h7.1V18.655Zm5.25,10.5H33.88V26.53h2.625Zm0-5.25H33.88V21.28h2.625Zm3.5,5.25h-1.75V26.53h1.75Zm0-5.25h-1.75V21.28h1.75ZM11.23,31.78h.775V18.655H.63V35.28h7.1l.824-.742,2.334-2.275.342-.483ZM5.005,29.155H3.255V26.53h1.75Zm0-5.25H3.255V21.28h1.75Zm4.375,5.25H6.755V26.53H9.38v2.625Zm0-5.25H6.755V21.28H9.38V23.9Z" transform="translate(20.87 23.72)" fill="#cacaca"/><path d="M60,46.66V19.993a6.667,6.667,0,0,0-3.333-5.767L33.333.893a6.667,6.667,0,0,0-6.667,0L3.333,14.226A6.667,6.667,0,0,0,0,19.993V46.66a6.667,6.667,0,0,0,3.333,5.767L26.667,65.76a6.667,6.667,0,0,0,6.667,0L56.667,52.427A6.667,6.667,0,0,0,60,46.66Z" transform="translate(33.327) rotate(30)" fill="none" stroke="#f7df1e" stroke-linecap="round" stroke-linejoin="round" stroke-width="1"/></g></svg>