<svg xmlns="http://www.w3.org/2000/svg" width="86.729" height="89.218" viewBox="0 0 86.729 89.218"><g transform="translate(0.72 0.748)"><g transform="translate(9.694 3.219)"><path d="M27.665,57.17l-7.858-31.5,31.5,8.98Z" transform="translate(0)" fill="none" stroke="#fff" stroke-linejoin="round" stroke-miterlimit="10" stroke-width="1" fill-rule="evenodd"/><path d="M52.937,50.612l3.829,15.516L41.414,61.7Z" transform="translate(-17.775 -20.519)" fill="none" stroke="#fff" stroke-linejoin="round" stroke-miterlimit="10" stroke-width="1" fill-rule="evenodd"/><path d="M76.088,89.273l-1.9-7.708,7.627,2.189Z" transform="translate(-44.41 -45.78)" fill="none" stroke="#fff" stroke-linejoin="round" stroke-miterlimit="10" stroke-width="1" fill-rule="evenodd"/><path d="M36.9,38.153l1.9,7.708-7.627-2.189Z" transform="translate(-9.351 -10.269)" fill="none" stroke="#fff" stroke-linejoin="round" stroke-miterlimit="10" stroke-width="1" fill-rule="evenodd"/><path d="M122.911,62.93l1.9,7.708-7.627-2.189Z" transform="translate(-79.527 -30.517)" fill="none" stroke="#fff" stroke-linejoin="round" stroke-miterlimit="10" stroke-width="1" fill-rule="evenodd"/><path d="M58.356,125.06l1.9,7.708-7.627-2.189Z" transform="translate(-26.806 -81.404)" fill="none" stroke="#fff" stroke-linejoin="round" stroke-miterlimit="10" stroke-width="1" fill-rule="evenodd"/></g><path d="M64.5,49.663V23a6.667,6.667,0,0,0-3.333-5.767L37.833,3.9a6.667,6.667,0,0,0-6.667,0L7.833,17.23A6.667,6.667,0,0,0,4.5,23V49.663A6.667,6.667,0,0,0,7.833,55.43L31.167,68.763a6.667,6.667,0,0,0,6.667,0L61.167,55.43A6.667,6.667,0,0,0,64.5,49.663Z" transform="translate(30.931 -4.851) rotate(30)" fill="none" stroke="#fff" stroke-linecap="round" stroke-linejoin="round" stroke-width="1"/></g></svg>