<svg xmlns="http://www.w3.org/2000/svg" width="60.331" height="49" viewBox="0 0 60.331 49"><path d="M54.13,15.592c.038.536.038,1.072.038,1.608,0,16.346-12.441,35.181-35.181,35.181A34.942,34.942,0,0,1,0,46.83a25.58,25.58,0,0,0,2.986.153A24.763,24.763,0,0,0,18.337,41.7,12.387,12.387,0,0,1,6.776,33.125a15.593,15.593,0,0,0,2.335.191,13.077,13.077,0,0,0,3.254-.421A12.367,12.367,0,0,1,2.45,20.76v-.153a12.453,12.453,0,0,0,5.589,1.569A12.383,12.383,0,0,1,4.211,5.639a35.147,35.147,0,0,0,25.5,12.939,13.958,13.958,0,0,1-.306-2.833,12.377,12.377,0,0,1,21.4-8.46A24.344,24.344,0,0,0,58.647,4.3a12.331,12.331,0,0,1-5.436,6.814A24.788,24.788,0,0,0,60.331,9.2a26.58,26.58,0,0,1-6.2,6.393Z" transform="translate(0 -3.381)" fill="#cacaca"/></svg>