<svg xmlns="http://www.w3.org/2000/svg" width="40" height="32.487" viewBox="0 0 40 32.487"><path d="M35.888,11.477c.025.355.025.711.025,1.066,0,10.838-8.249,23.325-23.325,23.325A23.167,23.167,0,0,1,0,32.188a16.961,16.961,0,0,0,1.98.1,16.418,16.418,0,0,0,10.178-3.5A8.212,8.212,0,0,1,4.492,23.1a10.338,10.338,0,0,0,1.548.127A8.67,8.67,0,0,0,8.2,22.949,8.2,8.2,0,0,1,1.624,14.9v-.1A8.256,8.256,0,0,0,5.33,15.843,8.21,8.21,0,0,1,2.792,4.878a23.3,23.3,0,0,0,16.9,8.579,9.255,9.255,0,0,1-.2-1.878A8.206,8.206,0,0,1,33.68,5.97a16.14,16.14,0,0,0,5.2-1.98,8.176,8.176,0,0,1-3.6,4.518A16.435,16.435,0,0,0,40,7.239a17.622,17.622,0,0,1-4.112,4.239Z" transform="translate(0 -3.381)" fill="#312f2f"/></svg>